<svg t="1745392180980" class="icon" viewBox="0 0 1024 1024" version="1.1" xmlns="http://www.w3.org/2000/svg" p-id="5258" width="256" height="256"><path d="M528.218172 0.279699A510.964171 510.964171 0 0 0 117.757274 185.10742a38.552708 38.552708 0 0 0 7.423828 56.318697 38.552708 38.552708 0 0 0 51.813201-7.270232A434.268347 434.268347 0 0 1 513.882504 76.821927c229.37069 0.972777 420.700661 182.779769 432.681183 411.843266a435.189925 435.189925 0 0 1-769.876577 300.741838 38.143117 38.143117 0 0 0-51.198815-6.655846 38.552708 38.552708 0 0 0-7.321431 56.318696A511.988147 511.988147 0 0 0 1023.976295 504.79282c-3.788712-272.377694-223.534025-496.116515-495.758123-504.513121z" fill="#ffffff" p-id="5259"></path><path d="M639.985184 512.011853a32.460049 32.460049 0 0 0 0-3.89111 38.347912 38.347912 0 0 0-11.007745-23.090666l-0.921578-0.87038-180.271027-180.271026A38.399111 38.399111 0 0 0 393.462891 358.415408l115.402129 115.197333H38.399111a38.399111 38.399111 0 0 0 0 76.798223h470.465909L393.462891 665.608297a38.399111 38.399111 0 0 0 54.321943 54.321942l180.015032-180.066231 0.972778-0.87038a38.091918 38.091918 0 0 0 11.007745-23.141864 32.460049 32.460049 0 0 0 0-3.89111z" fill="#ffffff" p-id="5260"></path></svg>