<svg t="1745651034526" class="icon" viewBox="0 0 1024 1024" version="1.1" xmlns="http://www.w3.org/2000/svg" p-id="17034" width="200" height="200"><path d="M720.2 759.8H302.8c-13.6 0-24.7-11-24.7-24.7s11-24.7 24.7-24.7h417.4c13.6 0 24.7 11 24.7 24.7s-11.1 24.7-24.7 24.7zM717.8 601.1H300.3c-13.6 0-24.7-11-24.7-24.7s11-24.7 24.7-24.7h417.5c13.6 0 24.7 11 24.7 24.7s-11.1 24.7-24.7 24.7zM551.4 331.5H303.5c-13.6 0-24.7-11-24.7-24.7s11-24.7 24.7-24.7h247.9c13.6 0 24.7 11 24.7 24.7s-11.1 24.7-24.7 24.7z" fill="#515151" p-id="17035"></path><path d="M767.1 960.1H252.5c-68 0-123.3-55.3-123.3-123.3V189.7c0-68 55.3-123.3 123.3-123.3H767c68 0 123.3 55.3 123.3 123.3v647.1c0.1 68-55.2 123.3-123.2 123.3zM252.5 115.7c-40.8 0-74 33.2-74 74v647.1c0 40.8 33.2 74 74 74H767c40.8 0 74-33.2 74-74V189.7c0-40.8-33.2-74-74-74H252.5z" fill="#515151" p-id="17036"></path></svg>